# xmcd
#
# Track frame offsets:
#	150
#	14500
#	28684
#	43500
#	57823
#	71714
#	86492
#	102547
#	117951
#	132183
#
# Disc length: 1958 seconds
#
# Revision: 0
# Processed by: cddbd v1.5.2PL0 Copyright (c) Steve Scherf et al.
# Submitted via: EasyCDDAExtractor 16.0.6.1
#
DISCID=8507a40a
DTITLE=Συλλογικός δίσκος - Λαϊκό τραγούδι 1954-1967, 1957-1
DYEAR=2008
DGENRE=Λαϊκή
TTITLE0=Πάνου Πόλυ-Ρουμελιώτης Δημήτρης - Καβγαδάκι [Γιώργος Μητσάκης]
TTITLE1=Καζαντζίδης Στέλιος - Ακόμα και στην κόλαση [Βασίλης Τσιτσάνης-Δημήτρη
TTITLE1=ς Γκούτης]
TTITLE2=Αναγνωστάκης Πέτρος - Μέσ' στου Μαρίνου [Βασίλης Τσιτσάνης]
TTITLE3=Λύδια Γιώτα-Κλειδωνιάρης Αντώνης - Μία σου και μία μου [Απόστολος Καλδ
TTITLE3=άρας-Ευτ. Παπαγιαννοπούλου]
TTITLE4=Μπιθικώτσης Γρηγόρης-Λύδια Γιώτα-Τσιτσάνης Βασίλης - Ο φλώρος [Βασίλης
TTITLE4=Τσιτσάνης-Ευτυχία Παπαγιαννοπούλου]
TTITLE5=Καζαντζίδης Στέλιος - Το μεροκάματο [Γιώργος Μητσάκης]
TTITLE6=Γαβαλάς Πάνος-Γκίκα Βούλα - Αν είσαι συ το μάλαμα, εγώ είμαι το διαμάν
TTITLE6=τι [Γεράσιμος Κλουβάτος]
TTITLE7=Τσαουσάκης Πρόδρομος-Λύδια Γιώτα - Ο μετανάστης [Απόστολος Καλδάρας-Ευ
TTITLE7=τυχία Παπαγιαννοπούλου]
TTITLE8=Δούκισσα-Τρίο Γκρέκο - Με την κοπέλα π' αγαπώ [Στέλιος Χρυσίνης-Χρήστο
TTITLE8=ς Κολοκοτρώνης]
TTITLE9=Καζαντζίδης Στέλιος - Ας είχα την μαννούλα μου [Χρ. Κολοκοτρώνης-Ιωάν.
TTITLE9=Παπαδόπουλος]
EXTD=
EXTT0=
EXTT1=
EXTT2=
EXTT3=
EXTT4=
EXTT5=
EXTT6=
EXTT7=
EXTT8=
EXTT9=
PLAYORDER=
